# xmcd CD database file
#
# Track frame offsets:
#	150
#	13366
#	28981
#	43022
#	56098
#	71955
#	85559
#	103951
#	115596
#	134613
#	147895
#	165333
#	179962
#
# Disc length: 2624 seconds
#
# Revision: 1
# Processed by: cddbd v1.5.2PL0 Copyright (c) Steve Scherf et al.
# Submitted via: CDex 1.70beta2
#
DISCID=c40a3e0d
DTITLE=Blain, "Colorblind"Brian (05) - Cdn. - Blues - Overqualified For The Blues
DYEAR=2005
DGENRE=Blues
TTITLE0=Saab Story
TTITLE1=Blues is Hurting
TTITLE2=No More Meetings
TTITLE3=Overqualified For The Blues
TTITLE4=Enfant Choisi
TTITLE5=Terrace Inn
TTITLE6=Ei-Tech Blues
TTITLE7=I'm A Little Mixed Up
TTITLE8=Sailing
TTITLE9=One Way Ticket
TTITLE10=Peace
TTITLE11=One More Weasel
TTITLE12=The Big Fire
EXTD=As heard on BluesfestRadio.com YEAR: 2005
EXTT0=
EXTT1=
EXTT2=
EXTT3=
EXTT4=
EXTT5=
EXTT6=
EXTT7=
EXTT8=
EXTT9=
EXTT10=
EXTT11=
EXTT12=
PLAYORDER=
